# xmcd
#
# Track frame offsets:
#	150
#	19157
#	30185
#	51260
#	70623
#	85058
#	110418
#	117833
#	133950
#	155305
#	170715
#	189715
#	205445
#	217405
#
# Disc length: 3116 seconds
#
# Revision: 0
# Processed by: cddbd v1.5.1PL0 Copyright (c) Steve Scherf et al.
# Submitted via: dBpowerAMP V4.0
#
DISCID=ca0c2a0e
DTITLE=Gerry Groom - Twice Blue
DYEAR=1994
DGENRE=Blues
TTITLE0=Are You Trying To Drown Your Troubles
TTITLE1=The Rhythm Of Your Heartbeat
TTITLE2=Woke Up This Morning
TTITLE3=The Heart Knows Reasons
TTITLE4=Love It Like It Is
TTITLE5=In The End You Are Alone
TTITLE6=Gospel Jamboree
TTITLE7=Long Distance Call
TTITLE8=I Wish You Would
TTITLE9=You Are The Magic
TTITLE10=The One Who Hears You Pray
TTITLE11=Radio Ghosts
TTITLE12=As Life Goes Dancing By
TTITLE13=Blue Moon
EXTD=on Shattered Music label (had e-mail address wrong on first submission)
EXTT0=
EXTT1=
EXTT2=
EXTT3=
EXTT4=
EXTT5=
EXTT6=
EXTT7=
EXTT8=
EXTT9=
EXTT10=
EXTT11=
EXTT12=
EXTT13=
PLAYORDER=
